solid OpenSCAD_Model
  facet normal -1 0 0
    outer loop
      vertex -5 -5 -5
      vertex -5 -5 5
      vertex -5 5 -5
    endloop
  endfacet
  facet normal -1 0 0
    outer loop
      vertex -5 5 -5
      vertex -5 -5 5
      vertex -5 5 5
    endloop
  endfacet
  facet normal 0 -1 0
    outer loop
      vertex -5 -5 5
      vertex -5 -5 -5
      vertex 5 -5 -5
    endloop
  endfacet
  facet normal 0 -1 0
    outer loop
      vertex 5 -5 5
      vertex -5 -5 5
      vertex 5 -5 -5
    endloop
  endfacet
  facet normal 0 0 -1
    outer loop
      vertex -5 -5 -5
      vertex -5 5 -5
      vertex 5 -5 -5
    endloop
  endfacet
  facet normal 0 0 -1
    outer loop
      vertex 5 -5 -5
      vertex -5 5 -5
      vertex 5 5 -5
    endloop
  endfacet
  facet normal 0 1 0
    outer loop
      vertex -5 5 -5
      vertex -5 5 5
      vertex 5 5 -5
    endloop
  endfacet
  facet normal 0 1 0
    outer loop
      vertex 5 5 -5
      vertex -5 5 5
      vertex 5 5 5
    endloop
  endfacet
  facet normal 0 0 1
    outer loop
      vertex -1.76777 -1.76777 5
      vertex -5 -5 5
      vertex 5 -5 5
    endloop
  endfacet
  facet normal 0 0 1
    outer loop
      vertex -1.76777 1.76777 5
      vertex -5 5 5
      vertex -2.5 0 5
    endloop
  endfacet
  facet normal 0 0 1
    outer loop
      vertex 0 -2.5 5
      vertex -1.76777 -1.76777 5
      vertex 5 -5 5
    endloop
  endfacet
  facet normal 0 0 1
    outer loop
      vertex -5 5 5
      vertex -5 -5 5
      vertex -1.76777 -1.76777 5
    endloop
  endfacet
  facet normal 0 0 1
    outer loop
      vertex -5 5 5
      vertex -1.76777 -1.76777 5
      vertex -2.5 0 5
    endloop
  endfacet
  facet normal 0 0 1
    outer loop
      vertex 5 5 5
      vertex -5 5 5
      vertex -1.76777 1.76777 5
    endloop
  endfacet
  facet normal 0 0 1
    outer loop
      vertex 1.76777 -1.76777 5
      vertex 0 -2.5 5
      vertex 5 -5 5
    endloop
  endfacet
  facet normal 0 0 1
    outer loop
      vertex 5 5 5
      vertex -1.76777 1.76777 5
      vertex 0 2.5 5
    endloop
  endfacet
  facet normal 0 0 1
    outer loop
      vertex 5 5 5
      vertex 1.76777 1.76777 5
      vertex 5 -5 5
    endloop
  endfacet
  facet normal 0 0 1
    outer loop
      vertex 5 5 5
      vertex 0 2.5 5
      vertex 1.76777 1.76777 5
    endloop
  endfacet
  facet normal 0 0 1
    outer loop
      vertex 1.76777 1.76777 5
      vertex 2.5 0 5
      vertex 5 -5 5
    endloop
  endfacet
  facet normal 0 0 1
    outer loop
      vertex 2.5 0 5
      vertex 1.76777 -1.76777 5
      vertex 5 -5 5
    endloop
  endfacet
  facet normal 1 0 0
    outer loop
      vertex 5 -5 5
      vertex 5 -5 -5
      vertex 5 5 -5
    endloop
  endfacet
  facet normal 1 0 0
    outer loop
      vertex 5 5 5
      vertex 5 -5 5
      vertex 5 5 -5
    endloop
  endfacet
  facet normal 0.92388 0.382683 0
    outer loop
      vertex -2.5 0 5
      vertex -1.76777 -1.76777 5
      vertex -1.76777 -1.76777 0
    endloop
  endfacet
  facet normal 0.92388 0.382683 0
    outer loop
      vertex -2.5 0 0
      vertex -2.5 0 5
      vertex -1.76777 -1.76777 0
    endloop
  endfacet
  facet normal 0.382683 0.92388 0
    outer loop
      vertex 0 -2.5 5
      vertex 0 -2.5 0
      vertex -1.76777 -1.76777 5
    endloop
  endfacet
  facet normal 0.382683 0.92388 0
    outer loop
      vertex -1.76777 -1.76777 5
      vertex 0 -2.5 0
      vertex -1.76777 -1.76777 0
    endloop
  endfacet
  facet normal -0.382683 0.92388 0
    outer loop
      vertex 1.76777 -1.76777 5
      vertex 1.76777 -1.76777 0
      vertex 0 -2.5 5
    endloop
  endfacet
  facet normal -0.382683 0.92388 0
    outer loop
      vertex 0 -2.5 5
      vertex 1.76777 -1.76777 0
      vertex 0 -2.5 0
    endloop
  endfacet
  facet normal -0.92388 0.382683 0
    outer loop
      vertex 2.5 0 5
      vertex 2.5 0 0
      vertex 1.76777 -1.76777 5
    endloop
  endfacet
  facet normal -0.92388 0.382683 0
    outer loop
      vertex 1.76777 -1.76777 5
      vertex 2.5 0 0
      vertex 1.76777 -1.76777 0
    endloop
  endfacet
  facet normal -0.92388 -0.382683 0
    outer loop
      vertex 2.5 0 5
      vertex 1.76777 1.76777 5
      vertex 2.5 0 0
    endloop
  endfacet
  facet normal -0.92388 -0.382683 0
    outer loop
      vertex 2.5 0 0
      vertex 1.76777 1.76777 5
      vertex 1.76777 1.76777 0
    endloop
  endfacet
  facet normal -0.382683 -0.92388 0
    outer loop
      vertex 1.76777 1.76777 0
      vertex 1.76777 1.76777 5
      vertex 0 2.5 5
    endloop
  endfacet
  facet normal -0.382683 -0.92388 0
    outer loop
      vertex 0 2.5 0
      vertex 1.76777 1.76777 0
      vertex 0 2.5 5
    endloop
  endfacet
  facet normal 0.382683 -0.92388 0
    outer loop
      vertex 0 2.5 0
      vertex 0 2.5 5
      vertex -1.76777 1.76777 5
    endloop
  endfacet
  facet normal 0.382683 -0.92388 0
    outer loop
      vertex -1.76777 1.76777 0
      vertex 0 2.5 0
      vertex -1.76777 1.76777 5
    endloop
  endfacet
  facet normal 0.92388 -0.382683 0
    outer loop
      vertex -1.76777 1.76777 0
      vertex -1.76777 1.76777 5
      vertex -2.5 0 5
    endloop
  endfacet
  facet normal 0.92388 -0.382683 0
    outer loop
      vertex -2.5 0 0
      vertex -1.76777 1.76777 0
      vertex -2.5 0 5
    endloop
  endfacet
  facet normal 0 0 1
    outer loop
      vertex -1.76777 -1.76777 0
      vertex 0 -2.5 0
      vertex 1.76777 -1.76777 0
    endloop
  endfacet
  facet normal 0 0 1
    outer loop
      vertex 1.76777 1.76777 0
      vertex -1.76777 -1.76777 0
      vertex 2.5 0 0
    endloop
  endfacet
  facet normal 0 0 1
    outer loop
      vertex 2.5 0 0
      vertex -1.76777 -1.76777 0
      vertex 1.76777 -1.76777 0
    endloop
  endfacet
  facet normal 0 0 1
    outer loop
      vertex 0 2.5 0
      vertex -1.76777 -1.76777 0
      vertex 1.76777 1.76777 0
    endloop
  endfacet
  facet normal 0 0 1
    outer loop
      vertex -1.76777 1.76777 0
      vertex -1.76777 -1.76777 0
      vertex 0 2.5 0
    endloop
  endfacet
  facet normal 0 0 1
    outer loop
      vertex -2.5 0 0
      vertex -1.76777 -1.76777 0
      vertex -1.76777 1.76777 0
    endloop
  endfacet
endsolid OpenSCAD_Model
